<?xml version="1.0" encoding="UTF-8"?>
<svg version="1.1" xmlns="http://www.w3.org/2000/svg" width="1200" height="433">
<path d="M0 0 C396 0 792 0 1200 0 C1200 142.89 1200 285.78 1200 433 C804 433 408 433 0 433 C0 290.11 0 147.22 0 0 Z " fill="#FEFEFE" transform="translate(0,0)"/>
<path d="M0 0 C11.55 0 23.1 0 35 0 C35 20.13 35 40.26 35 61 C54.8 61 74.6 61 95 61 C95 40.87 95 20.74 95 0 C106.88 0 118.76 0 131 0 C131 53.46 131 106.92 131 162 C119.12 162 107.24 162 95 162 C95 138.24 95 114.48 95 90 C75.2 90 55.4 90 35 90 C35 113.76 35 137.52 35 162 C23.45 162 11.9 162 0 162 C0 108.54 0 55.08 0 0 Z " fill="#040404" transform="translate(125,240)"/>
<path d="M0 0 C10.89 0 21.78 0 33 0 C33 20.13 33 40.26 33 61 C54.12 61 75.24 61 97 61 C97 40.87 97 20.74 97 0 C107.89 0 118.78 0 130 0 C130 53.13 130 106.26 130 161 C119.11 161 108.22 161 97 161 C97 136.91 97 112.82 97 88 C76.21 88 55.42 88 34 88 C34 112.09 34 136.18 34 161 C22.78 161 11.56 161 0 161 C0 107.87 0 54.74 0 0 Z " fill="#000000" transform="translate(124,28)"/>
<path d="M0 0 C6.25708531 5.95411065 9.52361126 12.97039134 10.1204834 21.59500122 C10.13768594 22.99309798 10.14450684 24.39134953 10.14257812 25.78955078 C10.14941116 26.55973038 10.1562442 27.32990997 10.1632843 28.12342834 C10.17680387 29.78534182 10.1859009 31.44729608 10.19099426 33.10925674 C10.19934704 35.75151923 10.21991379 38.3934465 10.24353027 41.03561401 C10.29159559 46.65390054 10.32458453 52.27222125 10.35546875 57.890625 C10.39132386 64.38653882 10.43359318 70.8822894 10.4914093 77.37804794 C10.51122854 79.95958528 10.51974824 82.54099223 10.52770996 85.12258911 C10.54070687 86.7368413 10.55423068 88.35108935 10.56835938 89.96533203 C10.56737747 90.66500595 10.56639557 91.36467987 10.56538391 92.08555603 C10.64721793 98.9037794 11.78447422 104.80416054 12.85546875 111.765625 C2.29546875 111.765625 -8.26453125 111.765625 -19.14453125 111.765625 C-20.13453125 107.475625 -21.12453125 103.185625 -22.14453125 98.765625 C-23.13453125 99.8175 -24.12453125 100.869375 -25.14453125 101.953125 C-28.84148598 105.62050409 -32.5278221 108.36626003 -37.14453125 110.765625 C-38.22347656 111.35730469 -38.22347656 111.35730469 -39.32421875 111.9609375 C-49.56378041 116.6390759 -63.22054079 116.46698822 -74.0234375 113.8125 C-76.92606759 112.66452615 -79.49325675 111.40558861 -82.14453125 109.765625 C-82.75039063 109.4046875 -83.35625 109.04375 -83.98046875 108.671875 C-90.95041113 103.71861646 -94.72359463 94.9221342 -96.14453125 86.765625 C-97.1100448 77.2042391 -97.3269665 67.15772558 -92.14453125 58.765625 C-91.72816406 58.0746875 -91.31179688 57.38375 -90.8828125 56.671875 C-87.32295266 51.81327364 -82.77568979 49.1586845 -77.51953125 46.453125 C-76.89336914 46.12747559 -76.26720703 45.80182617 -75.62207031 45.46630859 C-65.07166383 40.39673547 -53.11825214 39.17618722 -41.64453125 37.640625 C-39.19645302 37.30586691 -36.74852946 36.96997521 -34.30078125 36.6328125 C-33.23666016 36.48956543 -32.17253906 36.34631836 -31.07617188 36.19873047 C-28.40853018 35.80462684 -25.78260774 35.3216185 -23.14453125 34.765625 C-22.3663824 26.76439679 -22.3663824 26.76439679 -25.33203125 19.640625 C-32.75749874 14.69031334 -40.55241785 14.96575859 -49.14453125 15.765625 C-53.02097598 16.87721104 -54.09579963 17.83415229 -57.14453125 20.765625 C-59.12453125 25.715625 -59.12453125 25.715625 -61.14453125 30.765625 C-71.37453125 30.765625 -81.60453125 30.765625 -92.14453125 30.765625 C-92.14453125 18.14869532 -89.02209016 9.86128832 -80.296875 0.859375 C-75.6952675 -3.45863442 -71.03534163 -6.05014194 -65.14453125 -8.234375 C-64.15453125 -8.62625 -63.16453125 -9.018125 -62.14453125 -9.421875 C-42.65542582 -14.70017439 -16.14872877 -12.76426466 0 0 Z " fill="#020202" transform="translate(1084.14453125,290.234375)"/>
<path d="M0 0 C5.82473833 5.19138889 9.78370026 11.21941424 11 19 C11.10026454 21.60867375 11.15393368 24.19173052 11.15771484 26.80029297 C11.16279556 27.5700647 11.16787628 28.33983643 11.17311096 29.13293457 C11.18378105 30.79873405 11.19241431 32.46454757 11.19923019 34.13036728 C11.21106554 36.77075315 11.23052964 39.41097885 11.25234985 42.05130005 C11.313814 49.55644375 11.36799084 57.06156905 11.40136719 64.56689453 C11.42235465 69.16341531 11.45768698 73.75964012 11.50212479 78.35599136 C11.51624851 80.10297277 11.524999 81.85000648 11.52817917 83.59704208 C11.53310826 86.04531428 11.55631575 88.4928055 11.58349609 90.94091797 C11.58048996 91.6559549 11.57748383 92.37099182 11.5743866 93.10769653 C11.65752742 98.17071987 12.65554268 101.59559999 15 106 C16.485 106.99 16.485 106.99 18 108 C18 109.65 18 111.3 18 113 C6.78 113 -4.44 113 -16 113 C-17.5994614 109.80107719 -18.42595236 107.64537424 -19.125 104.25 C-19.29257813 103.45078125 -19.46015625 102.6515625 -19.6328125 101.828125 C-19.75398438 101.22484375 -19.87515625 100.6215625 -20 100 C-20.825 100.99 -21.65 101.98 -22.5 103 C-26.22395774 106.73921986 -30.33298638 109.02649361 -35 111.375 C-35.67611328 111.72046875 -36.35222656 112.0659375 -37.04882812 112.421875 C-46.86529527 117.18252832 -59.89791792 117.77154844 -70.4921875 115.12890625 C-79.99570132 111.44115597 -87.6763732 105.38461632 -92 96 C-95.45225869 85.9349641 -95.75470654 73.34161457 -91.43359375 63.48828125 C-85.84123007 53.78164456 -77.74094878 47.28725738 -67 44 C-59.09185262 42.14983929 -51.04384989 41.07058434 -43 40 C-32.62858469 38.76117174 -32.62858469 38.76117174 -23 35 C-20.53327891 31.29991837 -20.329222 28.29297922 -21 24 C-22.84394309 20.73763914 -24.14434346 19.36707924 -27.5859375 17.890625 C-31.79855962 16.7916801 -35.66552875 16.63215259 -40 16.625 C-41.17175781 16.58826172 -41.17175781 16.58826172 -42.3671875 16.55078125 C-47.71918637 16.52375095 -50.78512267 17.41639779 -55 21 C-57.65096322 24.3118883 -58.97230324 27.88921294 -60 32 C-69.9 32 -79.8 32 -90 32 C-88.73681622 18.10497847 -85.84260266 8.23019741 -75 -1 C-53.73657702 -15.06657213 -21.10107442 -13.83468939 0 0 Z " fill="#020202" transform="translate(1067,76)"/>
<path d="M0 0 C0.88059082 0.00894287 1.76118164 0.01788574 2.66845703 0.02709961 C17.14480562 0.28508071 29.56710562 3.72865765 40.5 13.6875 C55.672674 30.08498624 57.125 50.83664509 57.125 72.25 C30.395 72.25 3.665 72.25 -23.875 72.25 C-21.40606941 86.0798381 -21.40606941 86.0798381 -12.8515625 96.0234375 C-5.58928679 100.53006709 3.41254006 100.16002911 11.6015625 98.85546875 C14.63923927 97.94651142 16.61508579 97.19204086 18.16845703 94.32226562 C18.52794434 93.60748047 18.88743164 92.89269531 19.2578125 92.15625 C21.61547164 88.9028863 22.7686191 88.31336504 26.79394531 87.59765625 C31.36915983 87.35999646 35.92673533 87.55241856 40.5 87.75 C42.11058905 87.79015947 43.72127387 87.82665598 45.33203125 87.859375 C49.26539491 87.94723213 53.19414407 88.08507785 57.125 88.25 C55.00715775 100.26320253 50.55301902 109.35445664 40.625 116.8125 C24.9858963 127.28490722 5.40506992 129.44437524 -12.875 126.25 C-27.73847645 122.63501421 -39.96768164 114.28059649 -48.25 101.3125 C-59.26049242 81.37542191 -59.26897878 58.01995645 -53.1015625 36.55859375 C-48.15145363 22.4121817 -37.69758927 10.79213449 -24.25 4.3125 C-16.38271735 0.85039928 -8.51982538 -0.09776849 0 0 Z " fill="#020202" transform="translate(335.875,278.75)"/>
<path d="M0 0 C0.66257812 0.47824219 1.32515625 0.95648438 2.0078125 1.44921875 C2.75289062 1.97902344 3.49796875 2.50882812 4.265625 3.0546875 C16.16257562 12.51175502 21.86495461 27.65872984 24.2578125 42.26171875 C25.0258225 49.62181463 25.0078125 57.04916127 25.0078125 64.44921875 C-2.0521875 64.44921875 -29.1121875 64.44921875 -56.9921875 64.44921875 C-53.57443694 79.60317337 -53.57443694 79.60317337 -43.6796875 89.94921875 C-39.40477173 91.80499614 -35.02408889 91.86637455 -30.4296875 91.94921875 C-29.70934326 91.96791016 -28.98899902 91.98660156 -28.24682617 92.00585938 C-22.7412441 91.94033923 -19.61556317 90.38765675 -14.9921875 87.44921875 C-14.3321875 87.44921875 -13.6721875 87.44921875 -12.9921875 87.44921875 C-12.7034375 86.85109375 -12.4146875 86.25296875 -12.1171875 85.63671875 C-10.9921875 83.44921875 -10.9921875 83.44921875 -8.9921875 80.44921875 C-6.43823263 80.18210471 -4.12944376 80.10072846 -1.578125 80.15625 C-0.84848541 80.16049484 -0.11884583 80.16473969 0.63290405 80.16911316 C2.96658009 80.18592522 5.2993969 80.22358007 7.6328125 80.26171875 C9.21352921 80.27676241 10.79425943 80.29045137 12.375 80.30273438 C16.25293594 80.33583674 20.13022848 80.38763471 24.0078125 80.44921875 C24.26069596 89.22481284 19.70589184 98.05224503 13.6953125 104.44921875 C-0.89250755 117.37637179 -18.70038133 120.49615307 -37.52832031 119.64453125 C-52.56941833 118.45221274 -65.84241339 111.46501454 -75.9921875 100.44921875 C-89.29461384 83.0184532 -91.21683357 62.17332314 -88.6875 40.88476562 C-86.00583758 25.02738426 -78.28681555 11.20523202 -65.41015625 1.50390625 C-46.53975784 -10.32352456 -19.38218057 -12.27046793 0 0 Z " fill="#020202" transform="translate(682.9921875,286.55078125)"/>
<path d="M0 0 C14.8293408 10.63385114 20.14380292 25.21131416 23.69921875 42.44140625 C24.49667343 49.31309018 24.25 56.26969876 24.25 63.1875 C-2.81 63.1875 -29.87 63.1875 -57.75 63.1875 C-55.60510364 76.81388079 -55.60510364 76.81388079 -47.3125 87.1875 C-40.39056909 91.37319753 -33.72849377 91.9993819 -25.75 91.1875 C-20.70397073 89.91220572 -16.88764148 88.32514148 -13.1875 84.625 C-11.63141236 82.18095222 -11.63141236 82.18095222 -10.75 79.1875 C0.14 79.1875 11.03 79.1875 22.25 79.1875 C16.76513596 94.27087611 10.31230521 104.9131414 -4.3515625 111.87963867 C-19.80879015 118.81949365 -38.56249184 119.98204988 -54.71484375 114.4375 C-70.29223379 108.02210127 -79.33170918 98.57681094 -85.75 83.1875 C-93.2368648 64.36023703 -91.76699948 40.51204555 -84.5 22.00390625 C-79.00266422 9.74422276 -70.04268876 0.61812361 -57.75 -4.8125 C-39.17911178 -11.70732701 -17.00340842 -10.80725111 0 0 Z " fill="#020202" transform="translate(673.75,74.8125)"/>
<path d="M0 0 C2.26934806 1.69331252 4.3503189 3.46510349 6.41796875 5.3984375 C7.0315625 5.95917969 7.64515625 6.51992187 8.27734375 7.09765625 C23.12249705 22.23839889 23.41796875 43.4920348 23.41796875 63.3984375 C-3.31203125 63.3984375 -30.04203125 63.3984375 -57.58203125 63.3984375 C-55.72836024 76.30820559 -55.72836024 76.30820559 -48.83203125 86.2109375 C-41.41183751 91.20529867 -34.52225944 92.46750552 -25.58203125 91.3984375 C-20.39888666 89.89663483 -15.95852738 87.72035255 -12.58203125 83.3984375 C-11.59203125 81.4184375 -11.59203125 81.4184375 -10.58203125 79.3984375 C0.30796875 79.3984375 11.19796875 79.3984375 22.41796875 79.3984375 C19.18990159 88.2756222 17.01259754 93.42906018 11.41796875 100.3984375 C10.9178125 101.03652344 10.41765625 101.67460937 9.90234375 102.33203125 C2.38610735 110.85422858 -11.2200871 116.56860987 -22.43579102 117.68164062 C-25.44971962 117.7993352 -28.44116145 117.81515144 -31.45703125 117.7734375 C-32.51696289 117.76328613 -33.57689453 117.75313477 -34.66894531 117.74267578 C-49.16151281 117.45478831 -62.97212186 113.65205509 -73.77734375 103.4296875 C-89.07518918 86.21133333 -90.58674468 65.28344341 -89.77734375 43.35205078 C-88.73949293 27.65715171 -82.11537669 14.0754366 -70.58203125 3.3984375 C-63.26136591 -2.41798153 -55.57540008 -5.30695811 -46.58203125 -7.6015625 C-45.96457031 -7.79621094 -45.34710938 -7.99085937 -44.7109375 -8.19140625 C-29.97435738 -11.03056389 -12.67271985 -7.86053728 0 0 Z " fill="#020202" transform="translate(365.58203125,74.6015625)"/>
<path d="M0 0 C1.37671875 0.54333984 1.37671875 0.54333984 2.78125 1.09765625 C14.58252134 6.34069096 20.15454048 15.52391166 25 27 C26.87071344 32.17979764 27 36.36025483 27 42 C16.11 42 5.22 42 -6 42 C-6.99 39.03 -7.98 36.06 -9 33 C-11.95420953 28.72417042 -14.06370721 26.52150726 -19 25 C-22.60654359 24.60929934 -22.60654359 24.60929934 -26.4375 24.625 C-28.35369141 24.58246094 -28.35369141 24.58246094 -30.30859375 24.5390625 C-36.26490809 25.28281392 -40.2455121 28.56238365 -43.90234375 33.2421875 C-51.14542665 44.84143058 -50.42706696 62.6251475 -47.6796875 75.40234375 C-45.6407123 83.19497886 -43.74377867 88.30603864 -36.90234375 92.94140625 C-31.87746916 95.73758903 -26.58969599 95.54980616 -21 95 C-15.74393831 93.39881564 -11.76859791 90.81941118 -9 86 C-8.01 82.37 -7.02 78.74 -6 75 C4.89 75 15.78 75 27 75 C27 87.6916345 21.22502118 98.47469974 13 108 C6.08882217 114.00181232 -1.37598603 118.02540695 -10 121 C-11.05574219 121.36609375 -12.11148438 121.7321875 -13.19921875 122.109375 C-28.20687385 125.62607116 -45.13770887 123.712214 -58.5 116.0625 C-60.01612169 115.06576747 -61.51836745 114.04731355 -63 113 C-64.051875 112.2575 -65.10375 111.515 -66.1875 110.75 C-77.56229506 99.62797816 -82.80227136 84.60755672 -83.203125 68.9375 C-83.47629399 44.60269554 -83.47629399 44.60269554 -80 33 C-79.73316406 32.09894531 -79.46632813 31.19789063 -79.19140625 30.26953125 C-75.15607968 18.70159507 -66.54736064 8.16310188 -55.8203125 2.24609375 C-38.62961181 -5.99194411 -17.84382667 -7.31500959 0 0 Z " fill="#020202" transform="translate(945,283)"/>
<path d="M0 0 C1.00546875 0.32871094 2.0109375 0.65742187 3.046875 0.99609375 C14.37049536 5.14904589 24.03514983 13.5730998 29.21484375 24.58203125 C31.943628 31.21462785 33 35.67049971 33 43 C22.44 43 11.88 43 1 43 C-0.65 39.04 -2.3 35.08 -4 31 C-9.68297761 25.31702239 -13.30642618 24.64087323 -21.18334961 24.61938477 C-27.07790523 24.75981534 -30.85745499 25.78841257 -35 30 C-44.57007347 40.95290519 -45.05577258 54.49320604 -44.26318359 68.38476562 C-43.33805078 77.5777366 -40.5733414 86.31250506 -34 93 C-27.68090523 97.04148067 -21.27401317 96.88018881 -14 96 C-8.28350856 93.94837577 -4.79116861 90.37558399 -2 85 C-1.01 82.03 -0.02 79.06 1 76 C11.56 76 22.12 76 33 76 C31.2982078 91.3161298 25.07395291 103.51240525 13.2421875 113.43359375 C-1.64015534 123.83049179 -20.43041601 124.89025947 -37.8125 121.875 C-50.86834503 118.94465754 -60.94099913 111.95574961 -68.36328125 100.9140625 C-71.36409049 95.57133292 -73.25137305 89.85495317 -75 84 C-75.36609375 82.81277344 -75.7321875 81.62554687 -76.109375 80.40234375 C-80.69734734 61.39405297 -77.91319924 37.18160332 -67.6484375 20.3515625 C-58.69905476 7.58490751 -47.67358115 1.20579624 -32.68359375 -2.5859375 C-21.81913999 -4.26225788 -10.37502377 -3.5790934 0 0 Z " fill="#020202" transform="translate(926,69)"/>
<path d="M0 0 C12.21 0 24.42 0 37 0 C38.2684375 4.6715625 38.2684375 4.6715625 39.5625 9.4375 C41.83233342 17.78312467 44.15194325 26.11358008 46.5 34.4375 C49.09433823 43.63918172 51.54604129 52.8702765 53.92822266 62.12890625 C55.74830024 69.15611787 57.74767644 76.09729075 60 83 C62.32231478 80.67768522 62.599559 79.38784928 63.41015625 76.2421875 C63.673125 75.24034424 63.93609375 74.23850098 64.20703125 73.20629883 C64.48933594 72.10697021 64.77164063 71.0076416 65.0625 69.875 C65.68719009 67.50087734 66.31356959 65.12719874 66.94140625 62.75390625 C67.27414551 61.49336426 67.60688477 60.23282227 67.94970703 58.93408203 C69.73665332 52.20948233 71.61582481 45.51038587 73.5 38.8125 C73.78315063 37.80482574 73.78315063 37.80482574 74.07202148 36.77679443 C77.53783022 24.4621991 81.22074175 12.22228199 85 0 C96.55 0 108.1 0 120 0 C112.56970689 21.71038767 104.93092247 43.34046723 97.22172546 64.95314026 C94.61974387 72.25129171 92.03235722 79.55453576 89.44921875 86.859375 C88.34463096 89.97948507 87.23978324 93.09950295 86.13482666 96.21948242 C85.421906 98.23427762 84.70994574 100.24941292 83.9989624 102.26489258 C83.01359083 105.05771847 82.02476444 107.84929805 81.03515625 110.640625 C80.59413826 111.89501373 80.59413826 111.89501373 80.14421082 113.17474365 C78.11387708 118.88612292 78.11387708 118.88612292 77 120 C74.47905924 120.08847743 71.98569107 120.11527301 69.46484375 120.09765625 C68.33496788 120.09553383 68.33496788 120.09553383 67.18226624 120.09336853 C64.7673044 120.08775376 62.35243399 120.07519883 59.9375 120.0625 C58.30403779 120.0574869 56.67057414 120.05292366 55.03710938 120.04882812 C51.02470415 120.03777954 47.01236759 120.02050506 43 120 C36.59016265 103.12427974 30.44557264 86.16372954 24.42174911 69.14678192 C22.58760024 63.96779418 20.74839487 58.79059785 18.90946007 53.61330795 C18.45284647 52.32776271 17.99630438 51.04219206 17.53983498 49.75659561 C12.93244987 36.78197882 8.26546723 23.82936547 3.55566406 10.89160156 C3.3084108 10.21072479 3.06115753 9.52984802 2.80641174 8.82833862 C2.15896334 7.04572374 1.50962052 5.26379722 0.86010742 3.48193359 C0 1 0 1 0 0 Z " fill="#020202" transform="translate(470,282)"/>
<path d="M0 0 C11.55 0 23.1 0 35 0 C38.36913357 8.9843562 38.36913357 8.9843562 39.39453125 13.109375 C39.73955688 14.47231689 39.73955688 14.47231689 40.09155273 15.86279297 C40.32946533 16.81557129 40.56737793 17.76834961 40.8125 18.75 C42.91404304 26.98678817 45.18298851 35.14141315 47.67016602 43.26928711 C50.7175925 53.26719399 53.49449218 63.34175517 56.27539062 73.41650391 C56.89166247 75.61373728 57.54186108 77.79655766 58.203125 79.98046875 C59 83 59 83 59 87 C59.66 87 60.32 87 61 87 C61.20302734 85.90171875 61.20302734 85.90171875 61.41015625 84.78125 C63.61227117 73.70474384 66.83656955 62.97502802 70.06054688 52.16113281 C71.56069461 47.11333842 73.0289879 42.05634453 74.5 37 C75.07546677 35.02993212 75.65098789 33.05988012 76.2265625 31.08984375 C77.48032977 26.79291796 78.72319077 22.49297325 79.9609375 18.19140625 C80.28126953 17.08216797 80.60160156 15.97292969 80.93164062 14.83007812 C81.55017674 12.68761245 82.16615354 10.54440587 82.77929688 8.40039062 C83.19405273 6.96663086 83.19405273 6.96663086 83.6171875 5.50390625 C83.98239502 4.23268921 83.98239502 4.23268921 84.35498047 2.93579102 C85 1 85 1 86 0 C88.44830426 -0.08843793 90.86820599 -0.11528752 93.31640625 -0.09765625 C94.41298805 -0.09553383 94.41298805 -0.09553383 95.53172302 -0.09336853 C97.87535632 -0.08775408 100.21889539 -0.07519922 102.5625 -0.0625 C104.14778508 -0.05748686 105.73307166 -0.05292363 107.31835938 -0.04882812 C111.2122761 -0.03777997 115.10612205 -0.02050572 119 0 C117.04481074 6.71872202 114.89665613 13.33787458 112.55078125 19.9296875 C112.2209877 20.86200195 111.89119415 21.79431641 111.55140686 22.75488281 C110.474538 25.79591118 109.39379245 28.83554195 108.3125 31.875 C107.75517181 33.44486664 107.75517181 33.44486664 107.18658447 35.04644775 C101.63746922 50.67575944 96.0336983 66.28503862 90.375 81.875 C90.05205963 82.76636658 89.72911926 83.65773315 89.39639282 84.57611084 C85.09101677 96.45009362 80.61514154 108.24265999 76 120 C65.11 120 54.22 120 43 120 C38.17130027 107.77813566 33.63262094 95.49399015 29.28952026 83.09234619 C21.6896621 61.39829079 13.85222557 39.79577661 5.89355469 18.23095703 C5.49880447 17.15773193 5.10405426 16.08450684 4.69734192 14.97875977 C3.95522283 12.96113935 3.21046808 10.94448583 2.46269226 8.92895508 C2.13654434 8.04119385 1.81039642 7.15343262 1.47436523 6.23876953 C1.18810776 5.46421417 0.90185028 4.68965881 0.60691833 3.89163208 C0 2 0 2 0 0 Z " fill="#020202" transform="translate(461,69)"/>
<path d="M0 0 C10.56 0 21.12 0 32 0 C32 10.89 32 21.78 32 33 C38.27 33 44.54 33 51 33 C51 40.59 51 48.18 51 56 C44.73 56 38.46 56 32 56 C32.08551374 64.66678246 32.17927 73.33336821 32.28752708 81.999897 C32.33746627 86.02414759 32.38379645 90.04837223 32.421875 94.07275391 C32.45875796 97.9567365 32.50512595 101.84050077 32.55806351 105.72429657 C32.57659149 107.20580972 32.59170537 108.68736965 32.60334396 110.16895294 C32.62023402 112.2446985 32.6492747 114.3199458 32.68115234 116.39550781 C32.69447601 117.57687317 32.70779968 118.75823853 32.7215271 119.97540283 C32.99027478 122.89437075 33.38122969 124.58340047 35 127 C39.54601728 129.27300864 46.08679597 128.68734156 51 129 C51 136.92 51 144.84 51 153 C46.76759247 153.06942588 42.53721393 153.12898271 38.3046875 153.16479492 C36.8693975 153.17974586 35.43415209 153.20011424 33.99902344 153.22631836 C23.11199228 153.41991619 13.21205915 153.26753821 4.47265625 145.98828125 C0.35430038 140.42795463 -0.44079636 134.43163864 -0.34057617 127.74804688 C-0.34123329 126.57586609 -0.34123329 126.57586609 -0.34190369 125.38000488 C-0.33983246 122.82598897 -0.31658147 120.27264962 -0.29296875 117.71875 C-0.28736685 115.93656777 -0.28309956 114.1543809 -0.28010559 112.37219238 C-0.26870359 107.70323722 -0.23927685 103.03456627 -0.20599365 98.36572266 C-0.17519216 93.59281254 -0.16157879 88.81985607 -0.14648438 84.046875 C-0.11440226 74.69777231 -0.06167274 65.34895436 0 56 C-5.61 56 -11.22 56 -17 56 C-17 48.41 -17 40.82 -17 33 C-11.39 33 -5.78 33 0 33 C0 22.11 0 11.22 0 0 Z " fill="#010101" transform="translate(736,250)"/>
<path d="M0 0 C10.56 0 21.12 0 32 0 C32 10.89 32 21.78 32 33 C38.27 33 44.54 33 51 33 C51 40.26 51 47.52 51 55 C44.73 55 38.46 55 32 55 C32.08540321 64.22285206 32.17910144 73.44551635 32.28752708 82.66812706 C32.33753581 86.95026771 32.38386522 91.23238314 32.421875 95.51464844 C32.4586703 99.64500217 32.5050141 103.77514718 32.55806351 107.90532303 C32.57663819 109.483388 32.59173472 111.06149777 32.60334396 112.63962936 C32.62015427 114.84509543 32.64917535 117.05008023 32.68115234 119.25537109 C32.69447601 120.51223724 32.70779968 121.76910339 32.7215271 123.0640564 C32.69695553 126.12174105 32.69695553 126.12174105 35 128 C37.7416608 128.30720512 40.37654769 128.51063924 43.125 128.625 C47.023125 128.810625 47.023125 128.810625 51 129 C51 136.92 51 144.84 51 153 C46.62472124 153.09254409 42.25292439 153.17194885 37.87744141 153.21972656 C36.39359952 153.23966981 34.90983445 153.2668349 33.42626953 153.30175781 C23.26132065 153.53480452 14.53102909 153.2083917 6.125 146.8125 C-0.97630585 137.41371284 -0.53036373 127.92153529 -0.390625 116.62109375 C-0.38315397 114.84034361 -0.37746511 113.05958519 -0.37347412 111.27882385 C-0.35828557 106.61799969 -0.31906321 101.95768326 -0.2746582 97.29705811 C-0.23355829 92.53079087 -0.21543182 87.76444068 -0.1953125 82.99804688 C-0.15256139 73.66510693 -0.08226803 64.33267535 0 55 C-5.28 55 -10.56 55 -16 55 C-16 47.41 -16 39.82 -16 32 C-10.72 32 -5.44 32 0 32 C0 21.44 0 10.88 0 0 Z " fill="#020202" transform="translate(722,37)"/>
<path d="M0 0 C10.56 0 21.12 0 32 0 C32.029729 5.91329224 32.029729 5.91329224 32.06005859 11.94604492 C32.12690752 24.95801421 32.20444802 37.96990124 32.28752708 50.98177624 C32.33764543 58.8723526 32.38408843 66.76291861 32.421875 74.65356445 C32.45481971 81.53117955 32.49466464 88.40871416 32.54279006 95.2862404 C32.56803043 98.92771797 32.58981895 102.56914232 32.60334396 106.21068382 C32.61857309 110.27623431 32.64920734 114.34152891 32.68115234 118.40698242 C32.68331253 119.61395279 32.68547272 120.82092316 32.68769836 122.06446838 C32.69886185 123.17359589 32.71002533 124.28272339 32.7215271 125.42546082 C32.72705786 126.3868909 32.73258862 127.34832098 32.73828697 128.33888531 C33.13453826 132.36799355 34.12913795 135.12913795 37 138 C40.3 138.33 43.6 138.66 47 139 C47 146.92 47 154.84 47 163 C43.225625 163.061875 39.45125 163.12375 35.5625 163.1875 C33.80595093 163.22846802 33.80595093 163.22846802 32.01391602 163.27026367 C22.73168264 163.34331501 15.1565883 161.73255418 7.79296875 155.8828125 C2.49927631 150.32385878 -0.12696019 142.83021027 -0.12025452 135.28633118 C-0.12162918 134.09581146 -0.12300385 132.90529175 -0.12442017 131.67869568 C-0.12082489 130.37102737 -0.11722961 129.06335907 -0.11352539 127.71606445 C-0.11324335 126.32647707 -0.11340159 124.93688954 -0.1139679 123.54730225 C-0.1142552 119.77279387 -0.10836926 115.99831716 -0.10139394 112.22381616 C-0.09514928 108.28000565 -0.09455572 104.33619445 -0.09336853 100.39237976 C-0.0902585 92.92324515 -0.08204953 85.45412515 -0.07201904 77.98499697 C-0.06084772 69.48206822 -0.05534488 60.97913878 -0.05032361 52.47620451 C-0.03986665 34.98412637 -0.02152523 17.49206826 0 0 Z " fill="#000000" transform="translate(417,240)"/>
<path d="M0 0 C10.56 0 21.12 0 32 0 C32 53.46 32 106.92 32 162 C21.44 162 10.88 162 0 162 C0 108.54 0 55.08 0 0 Z " fill="#040404" transform="translate(411,27)"/>
<path d="M0 0 C10.89 0 21.78 0 33 0 C33 39.6 33 79.2 33 120 C22.11 120 11.22 120 0 120 C0 80.4 0 40.8 0 0 Z " fill="#010101" transform="translate(807,282)"/>
<path d="M0 0 C10.56 0 21.12 0 32 0 C32 39.6 32 79.2 32 120 C21.44 120 10.88 120 0 120 C0 80.4 0 40.8 0 0 Z " fill="#040404" transform="translate(794,69)"/>
<path d="M0 0 C0.11760715 3.16634636 0.18771024 6.33212074 0.25 9.5 C0.28351563 10.386875 0.31703125 11.27375 0.3515625 12.1875 C0.45927069 19.51165708 -1.09710488 24.61827682 -5.89453125 30.20703125 C-14.07141301 37.05163085 -19.90713916 38.33531943 -30.37890625 38.49609375 C-34.60385638 37.91727102 -36.72645606 36.6901878 -40 34 C-42.69363853 29.2412386 -43.59316755 25.43736917 -43 20 C-40.7882515 14.0632014 -37.59239491 11.28106675 -31.98828125 8.51171875 C-26.45960825 6.19303294 -20.52996944 5.51143853 -14.65039062 4.5390625 C-10.0858583 3.73838249 -4.08277273 0 0 0 Z " fill="#FBFBFB" transform="translate(1047,131)"/>
<path d="M0 0 C0.82186432 21.16300634 0.82186432 21.16300634 -6.375 29.875 C-14.18178138 36.1947754 -22.24839947 36.84901995 -32 36 C-36.29653507 34.14804523 -37.55211942 32.77632634 -39.875 28.75 C-41.62905929 22.9031357 -41.76901444 19.0623569 -39.625 13.3125 C-35.56466439 7.08207605 -27.51858407 4.93231914 -20.625 3.41796875 C-18.41950235 2.99282834 -16.21104242 2.58279188 -14 2.1875 C-12.30423828 1.86362305 -12.30423828 1.86362305 -10.57421875 1.53320312 C-2.44580853 0 -2.44580853 0 0 0 Z " fill="#FBFBFB" transform="translate(1061,346)"/>
<path d="M0 0 C10.89 0 21.78 0 33 0 C33 9.57 33 19.14 33 29 C22.11 29 11.22 29 0 29 C0 19.43 0 9.86 0 0 Z " fill="#010101" transform="translate(807,239)"/>
<path d="M0 0 C5.27667508 4.48319011 8.15600031 9.38329524 10 16 C10 17.65 10 19.3 10 21 C-5.84 21 -21.68 21 -38 21 C-38 13.11761613 -36.56441643 8.03690884 -31.3203125 2.09765625 C-22.33475475 -6.06921735 -10.23840153 -6.11555528 0 0 Z " fill="#FBFBFB" transform="translate(655,96)"/>
<path d="M0 0 C5.87297693 3.50317922 9.15869349 8.89475475 11.2265625 15.328125 C11.2265625 17.638125 11.2265625 19.948125 11.2265625 22.328125 C-4.2834375 22.328125 -19.7934375 22.328125 -35.7734375 22.328125 C-35.7734375 13.80617771 -34.78806375 9.61709928 -29.05859375 3.49609375 C-20.51869606 -4.18420811 -10.34972525 -4.66559043 0 0 Z " fill="#FCFCFC" transform="translate(344.7734375,94.671875)"/>
<path d="M0 0 C6.61232626 3.34108739 10.82080797 8.31683679 13.1875 15.3125 C13.6825 19.2725 13.6825 19.2725 14.1875 23.3125 C-1.3225 23.3125 -16.8325 23.3125 -32.8125 23.3125 C-31.84364771 14.59282936 -30.66420551 8.31286851 -23.7421875 2.60546875 C-16.2367028 -2.19970319 -8.40006387 -3.48947377 0 0 Z " fill="#F4F4F4" transform="translate(345.8125,306.6875)"/>
<path d="M0 0 C4.05406938 3.53033793 6.31334081 7.94002243 8 13 C8 15.31 8 17.62 8 20 C-7.51 20 -23.02 20 -39 20 C-36.78616789 8.93083946 -34.76459014 3.52396946 -25.96484375 -2.87109375 C-17.45088874 -7.76280945 -7.65949065 -5.17901503 0 0 Z " fill="#F5F5F5" transform="translate(666,310)"/>
<path d="M0 0 C10.56 0 21.12 0 32 0 C32 9.57 32 19.14 32 29 C21.44 29 10.88 29 0 29 C0 19.43 0 9.86 0 0 Z " fill="#030303" transform="translate(794,26)"/>
</svg>
