<svg xmlns="http://www.w3.org/2000/svg" width="857" height="817"><path fill="#FEFEFE" d="M0 0h857v817H0V0Z"/><path fill="#FEFEFE" d="M0 0h857l.19 263.75.08 83.42.02 49.16.03 35.13c.02 11.93.02 23.87.02 35.8 0 6.48 0 12.96.02 19.44v17.56l.01 6.37c.02 2.88.01 5.75 0 8.63l.02 2.54c-.04 4.32-.23 7.09-3.39 10.2l.21-1.81c2.6-23.9.96-46.22-14.27-65.75-1.3-1.5-2.6-2.98-3.94-4.44l-1.64-1.88c-13.25-14.35-32.29-21.14-51.37-22.44-19.46-.59-37.36 6.16-52.27 18.66-2.7 2.48-2.7 2.48-4.38 5.07-3.15 4.25-5.6 7.13-10.83 8.5-4.32.32-8.54.33-12.86.23h-4.94c-4.45 0-8.9-.06-13.34-.13-4.66-.06-9.32-.06-13.97-.08-8.81-.03-17.62-.1-26.43-.21-10.03-.11-20.06-.17-30.1-.22-20.62-.1-41.24-.28-61.87-.5l-.58-3.67-.79-4.85-.38-2.4c-3.4-20.89-13.46-39.38-30.5-52.27-1.9-1.3-3.82-2.57-5.75-3.81l-3.07-1.99c-16.3-9.93-34.1-15.21-52.8-18.46-3.05-.54-6.08-1.14-9.12-1.74-14.87-2.73-29.4-3.03-44.48-2.93l-6.58.02-13.86.06c-7.01.04-14.02.06-21.02.08-10.53.02-21.06.07-31.59.14-5.96.04-11.92.08-17.88.1a3254 3254 0 0 0-17.8.09l-6.64.02c-23 .02-42.45 3.69-60.16 19.61l-1.89 1.6c-11.7 10.67-18.48 26.91-20.11 42.4l-5-1a204.24 204.24 0 0 1-5.38-19 269.08 269.08 0 0 0-4.5-17.06A493.8 493.8 0 0 1 186.5 381a475.36 475.36 0 0 0-5.38-20.06 904.5 904.5 0 0 1-7.38-27.3c-2.18-8.5-4.41-16.98-6.68-25.45l-1.02-3.82a40949.3 40949.3 0 0 0-7.75-29.04 12845.77 12845.77 0 0 1-10.24-38.53 886 886 0 0 0-8.41-30.2c-1.61-5.35-2.89-10.7-4.06-16.16-.48-2.43-.48-2.43-1.58-4.44-.57-3.47-.72-5.95 1.32-8.93l1.74-2.07c13.59-16.23 15.19-36.68 13.94-57-1.87-16.83-13.03-34.63-25.88-45.38-7.29-5.41-15.04-10.46-23.84-12.94-1.46-.44-2.9-.91-4.32-1.45-5.72-2.15-10.7-2.64-16.77-2.48l-2.67.05c-1.73.03-3.47.08-5.2.13-1.91.06-3.82.08-5.72.1-18.75.66-35 11.9-47.6 24.97a86.3 86.3 0 0 0-7 10l-1.4 2.24c-7.64 12.96-8.76 25-8.66 39.76l.01 3.8L2 146l-2 1V0Z"/><path fill="#333" d="M72.27 54.9C94.8 54.01 113.2 60.76 130 76a79 79 0 0 1 21 38l.51 1.82c4.26 19.09-1.16 38.84-10.41 55.46a41.17 41.17 0 0 1-3.82 4.97c-2.55 2.6-2.55 2.6-2.78 6.06.5 3.67 1.4 6.73 2.65 10.2 1.24 3.62 2.1 7.32 3 11.05 2.61 10.55 5.55 21.02 8.43 31.5a4280.3 4280.3 0 0 1 13.01 48.76l.62 2.37a5322.2 5322.2 0 0 0 5.92 22.31l.97 3.66a22354.77 22354.77 0 0 0 7.9 29.5c2.27 8.53 4.48 17.08 6.67 25.64a725.6 725.6 0 0 0 8.25 30.07c1.84 6.17 3.45 12.4 5.08 18.63a5219 5219 0 0 0 2.13 8c.3 1.18.62 2.35.94 3.56.94 3.5 1.93 6.97 2.93 10.44l4 1-.25-3.25c.1-14.23 9.52-28.63 19.04-38.57 19.35-19.02 40.17-22.62 66.35-22.7 2.28 0 4.56-.03 6.85-.05l18.05-.1c5.94-.03 11.87-.08 17.81-.12 10.56-.08 21.12-.13 31.68-.17 7-.02 14-.06 21-.11a5026.15 5026.15 0 0 1 19.9-.12c18.27-.16 35.64 1.68 53.57 5.19l5.33.94c26.22 4.9 54.82 18 70.42 40.37 8.37 12.51 13.7 25.37 14.8 40.45l.26 3.54.19 2.7c21.58.15 43.17.23 64.75.23 10.03 0 20.05.03 30.07.1 8.74.07 17.48.1 26.22.07 4.62-.01 9.24 0 13.87.05 4.36.06 8.72.06 13.08.01 1.59 0 3.18.01 4.78.05 9.44.27 9.44.27 17.51-4.13a67.96 67.96 0 0 0 5.38-6.38c9.85-12.6 27.79-19.76 43.34-22 21.1-2.17 41.2 4.23 58 17 14.09 12.03 25.43 29.19 27 48 1.32 22.83-2.52 43.99-17.9 61.77-12.63 13.37-29.77 24.09-48.63 25.4-24.55.57-44.18-3.93-62.47-21.17-6.23-6.47-6.23-6.47-8-10-45.13-.2-90.26-.4-135.39-.5l-2.02-.01a116520.05 116520.05 0 0 0-67.07-.15c-22.97-.06-45.93-.15-68.89-.26-23.6-.1-47.2-.18-70.8-.2-15.2-.02-30.4-.07-45.61-.17-9.97-.07-19.94-.09-29.9-.07-5.75 0-11.5 0-17.26-.07-5.26-.06-10.53-.06-15.8-.02-1.9 0-3.8-.01-5.7-.05-10.74-.45-10.74-.45-20.03 4.12-2.83 2.88-5.14 6.12-7.53 9.38-7.3 7.05-15.7 11.26-25 15l-3.16 1.32c-17.25 6.1-38.3 4.61-54.68-3.2-18.45-9.17-32.68-23.62-39.88-43.06-6.41-19.37-6.58-39.28 1.72-58.06 1.13-2 2.29-3.99 3.5-5.94 2.85-4.93 2.83-8 1.53-13.49L116 457l-1.25-4.48c-.99-3.53-2.01-7.05-3.04-10.56a649.72 649.72 0 0 1-5.21-19.34 436233539.14 436233539.14 0 0 1-2.66-10.35 4439.28 4439.28 0 0 0-20.92-78.3 3682.34 3682.34 0 0 1-13.29-49.74c-1.56-5.96-3.14-11.91-4.73-17.87-.93-3.49-1.86-6.99-2.77-10.49a691.73 691.73 0 0 0-4.25-15.19 753 753 0 0 1-8.05-30.04C48 203.26 48 203.26 48 201l-2.67-.8c-18-6.45-31.54-23.13-39.59-39.8C1.6 150.74.67 140.9.75 130.5l-.02-2.9C.78 106.05 10 89.08 25 74c13.41-12.57 29.2-18.31 47.27-19.1Z"/><path fill="#333" d="M346.8 124.96c9.14 4.33 16.66 10.73 20.5 20.27 2.52 9.95 1.63 19.31-3.53 28.22-5.17 7.46-11.8 12.86-20.64 15.36L340 189l-2.5.15c-10.48.37-17.25-2.17-25.27-8.97-6.55-6.4-9.41-13.9-9.6-23.08v-4.16c.1-5.68 1.25-9.26 4.37-13.94-10.52 3.96-20.9 8.63-26.1 19.25-4.4 13.5 1.45 27.37 7.1 39.5 6.1 11.72 13.99 22.5 22.13 32.88 14.04 18 23.88 35.36 24.12 58.68l.03 2.28c-.04 6.63-1.7 12.32-4.28 18.41-3.4-1.06-6.01-2-9-4-9.67-1.04-17.76-.64-26 5l-2.88 1.94c-4.75 4.61-7.8 9.87-8.46 16.48-.08 8.17.7 14.27 4.34 21.58l1 3c-9.79 6.53-21.76 5.38-33 5l-3.43-.06c-17.9-.78-33.54-11.35-45.57-23.94-14.11-16.68-18.4-35.85-17.25-57.26 1.08-11.88 6.75-26.24 15.25-34.74.55-2.63.99-5.22 1.38-7.88l.78-4.92.42-2.59c3.96-24.56 11.86-43.54 28.42-62.61l2.11-2.52C253.03 145.17 274.1 129.91 297 126c1.82-.05 3.64-.04 5.46 0l3.12.06 6.43.15c12.5.18 22.28-6.04 34.8-1.25Z"/><path fill="#2BD37F" d="M346.8 124.96c9.14 4.33 16.66 10.73 20.5 20.27 2.52 9.95 1.63 19.31-3.53 28.22-5.17 7.46-11.8 12.86-20.64 15.36L340 189l-2.5.15c-10.48.37-17.25-2.17-25.27-8.97-6.55-6.4-9.41-13.9-9.6-23.08v-4.16c.1-5.68 1.25-9.26 4.37-13.94-10.52 3.96-20.9 8.63-26.1 19.25-4.4 13.5 1.45 27.37 7.1 39.5 6.8 13.07 15.77 25.03 24.98 36.49C315 237 315 237 318 243H206c0-5.69.02-9.02 1.38-14.19a113.2 113.2 0 0 0 2.5-13.25c2.99-19.87 13.78-36.98 27.12-51.56l3.56-4.25c14.1-15.9 35.08-30.2 56.44-33.75 1.82-.05 3.64-.04 5.46 0l3.12.06 6.43.15c12.5.18 22.28-6.04 34.8-1.25Z"/><path fill="#343434" d="m598.56 663.81 2.02.97C606.03 667.59 610 671 612 677c.1 2.46.15 4.9.15 7.36v2.26a2174.43 2174.43 0 0 1 .03 12.59v10.85c0 4.61.02 9.23.04 13.85a3255.13 3255.13 0 0 1 .02 15.78c.06 13.86-.46 25.37-9.99 36.32-5.28 5.07-11.43 7.56-18.25 9.99l-2.8 1.05a30.11 30.11 0 0 1-9.27 1.22h-3.47l-3.59-.02-3.51.02c-10.28-.02-21.63-.15-30.36-6.27-4.15-4.26-5.8-7.98-6.38-13.88.14-4.66 1.58-7.4 4.38-11.12 2.19-1.19 2.19-1.19 5-1 2.2.9 4.33 1.91 6.47 2.94 10.84 4.54 22.63 3.95 33.53.06 5.08-3.56 5.91-7.16 7-13l-1.55.66C568.4 750.67 553.79 751 543 746c-12.75-6.2-18.49-15.06-23.12-28.16-1.13-4.94-1.21-9.6-1.2-14.65 0-.94-.02-1.87-.04-2.83 0-10.67 2.78-18.98 9.36-27.36l1.45-1.87c16.75-19 48.24-17.43 69.11-7.32Z"/><path fill="#FDFD00" d="m181.44 459.63 2.94-.04c14.2.06 24.74 5.5 34.93 15.22 10.32 10.84 15.4 23.32 15.3 38.26-.63 14.76-8.04 28.28-18.68 38.34A66.2 66.2 0 0 1 204 559l-2.28 1.26c-10.34 4.78-24.64 4.43-35.56 1.82A51.84 51.84 0 0 1 158 558l-2.54-1.53A103.89 103.89 0 0 1 149 552l-2.47-1.82c-10.02-8.64-15.95-21.87-17-34.9-.69-14.55 3.43-26.73 12.47-38.28 11.08-11.8 23.3-17.57 39.44-17.38Z"/><path fill="#FD65FD" d="m76.69 78.44 2.91-.05c13.05.19 25.02 6.86 34.52 15.57 11.78 12.78 14.51 27.05 14.01 43.7A32.15 32.15 0 0 1 125 150l-1.22 2.68c-7.06 14.15-17.96 23.28-32.78 28.5-4.98 1.36-9.8 1.46-14.94 1.38l-3.19-.03c-7.98-.21-13.99-1.27-20.87-5.53l-2.43-1.39c-12.26-7.52-19.99-18.33-24-32.11-3.36-14.16-1.75-27.2 5.64-39.84 7.5-11.16 18.36-20.8 31.63-24.26 4.59-.84 9.2-.92 13.85-.96Z"/><path fill="#33FDFD" d="M809.63 467.64A60.76 60.76 0 0 1 816 473l2.07 1.95c9.41 9.68 14.11 21.27 14.18 34.61l.06 2.89c.08 14.6-5.93 26.81-15.9 37.33-3.8 3.5-7.8 5.9-12.41 8.22l-2.5 1.47c-10.5 5.47-25.08 5.56-36.49 2.68-14.33-5.05-24.53-15.04-31.65-28.15a50.7 50.7 0 0 1-4.86-22.75l.02-2.93c.35-14.03 6.3-24.72 15.67-35 17.77-16.87 45.1-18.35 65.44-5.68Z"/><path fill="#353535" d="M437.5 658.84c6.83 3.84 9.04 10.22 11.14 17.5l1.61 6.03a808.72 808.72 0 0 0 9.26 31.65L462 722c8.3-25.31 8.3-25.31 13.35-51.34.81-7.7.81-7.7 3.1-10.3 6.27-3.74 14.88-3.41 21.8-1.85 4.14 1.55 6.76 3.58 8.75 7.49.8 8.3-.52 16.04-2.56 24.06l-.81 3.27A227.2 227.2 0 0 1 496 722l-.92 2.36c-20.12 51.37-20.12 51.37-40.52 61.89-6.34 2.42-13.2 3.22-19.73 1.02-4.78-2.5-7.7-6.03-10.08-10.77-.84-2.81-1.15-4.58-.75-7.5 2.13-2.18 2.13-2.18 5-4.31 9.87-7.61 9.87-7.61 17-17.69l-2.13-.5c-10.26-5.35-15.2-20.86-18.62-31.38l-1.1-3.55c-.79-2.44-1.65-4.86-2.57-7.25-2.07-5.44-3.58-11.03-5.14-16.63l-.92-3.23c-1.9-6.77-3.4-13.52-4.52-20.46 8.38-5.36 16.4-8.55 26.5-5.16ZM297 667c8.78 8.9 10.32 17.46 10.48 29.52l.05 3.68.06 7.68c.02 2.62.06 5.23.12 7.84.09 3.8.12 7.57.14 11.36l.1 3.52c-.03 7.53-1.56 11.34-6.92 16.68-14.13 11.98-35.25 10.65-52.62 9.48-9.18-1.18-18.01-4.74-24.41-11.57-5.77-7.49-7.83-14.09-7.5-23.62 1.14-8.16 4.58-14.58 11.13-19.63 9.9-5.88 21.37-6.6 32.62-7.63l4.03-.39L274 693c-.27-4.15-.27-4.15-2.5-7.45-5.55-2.57-10.3-3.15-16.38-2.99l-2.67.04c-5.46.14-10.32.73-15.46 2.67-2.96 1.09-5.86 1.39-8.99 1.73-3.99-5.1-5.81-9.2-5.4-15.74.63-3.55 1.62-4.94 4.4-7.26 18.66-12.47 52.13-9.88 70 3ZM337.57 659.45l3.9-.06h4.16c1.44 0 2.87 0 4.3-.02h9.02c3.84.01 7.68-.02 11.53-.07 2.96-.03 5.92-.03 8.89-.03 1.41 0 2.83 0 4.25-.03 11.03-.13 11.03-.13 14.36 2.07 2.21 2.58 3.64 5.32 4.02 8.69l.34 2.41c.57 9.64-3.62 15.29-9.75 22.38-1.7 1.85-3.4 3.7-5.12 5.53-2.95 3.2-5.63 6.56-8.31 9.98-3.1 3.88-6.33 7.65-9.57 11.41-2.56 2.96-2.56 2.96-4.59 6.29h37c1.9 4.75 2.35 7.5 2.44 12.5l.12 3.9c-.7 4.44-2.12 5.83-5.56 8.6-2.82 1.41-5.23 1.17-8.39 1.22l-1.99.04c-6.85.11-13.7.16-20.55.2-3.25.02-6.5.06-9.75.12-3.93.07-7.85.11-11.78.12-1.49.01-2.98.04-4.48.07-11.68.26-11.68.26-15.08-2.27-4.34-5.86-4.92-12.5-3.98-19.5 1.43-3.48 3.6-6.12 6-9l1.28-1.54c3-3.6 6.07-7.13 9.15-10.66 2.47-2.83 4.9-5.69 7.32-8.55l2.48-2.92c3.68-4.38 7.21-8.86 10.77-13.33l-2.98-.01c-3.65-.02-7.3-.08-10.95-.14a420.7 420.7 0 0 0-4.74-.05c-2.28 0-4.55-.05-6.82-.1l-2.14.02c-2-.06-2-.06-5.37-.72-3.67-4.54-3.98-9.33-4-15 .65-4.51 1.12-6.29 4.68-9.16 3.66-2.03 5.74-2.36 9.89-2.39Z"/><path fill="#343434" d="M153.81 636.69c3.32 2.4 4.5 3.64 6.19 7.31.27 2.8.38 5.38.34 8.19v2.45a3963.07 3963.07 0 0 0-.06 13.56c-.01 4.88-.04 9.75-.07 14.62A9200.76 9200.76 0 0 1 160 727l3.98-.08c4.88-.09 9.76-.15 14.64-.2 2.12-.02 4.23-.05 6.34-.1 3.04-.06 6.08-.09 9.11-.1l2.87-.09c2.45 0 4.66.05 7.05.57 3.48 3.83 3.4 7.44 3.38 12.5l.02 3.9c-.42 3.77-1.1 5.63-3.4 8.6-3.51 2.34-4.97 2.26-9.12 2.3l-3.82.03a3569.6 3569.6 0 0 1-8.4.03l-8.9.01c-3.8 0-7.6.03-11.39.06-2.93.02-5.85.03-8.78.03-1.4 0-2.8 0-4.2.02a790888115.11 790888115.11 0 0 1-9.26.01c-4.67-.73-7.49-2.61-10.6-6.16-3.92-5.48-4.22-10.3-4.1-16.88v-3.1c0-3.37.04-6.73.08-10.1l.02-7.03c.02-6.15.07-12.3.13-18.44.05-6.28.07-12.57.1-18.85.05-12.3.13-24.62.24-36.93 8.52-2.56 19.38-4.18 27.81-.31Z"/><path fill="#363636" d="m701 639.69 2.37-.09c6.4-.07 9.67 1.8 14.5 6.04 1.87 3.9 1.44 7.86 1.32 12.11l-.04 2.7L719 667l2.26-.05c3.37-.06 6.74-.1 10.12-.14l3.56-.07 3.4-.03 3.14-.05 2.52.34c2.25 3.38 2.57 4.99 3 9l.3 2.63.2 2.87.22 2.72c-.95 3.68-2.53 5.29-5.5 7.61-4.2 2.21-8.51 1.8-13.16 1.54l-2.94-.08A312.3 312.3 0 0 1 719 693a2377.8 2377.8 0 0 0 .42 17.45 600915604.2 600915604.2 0 0 1 .26 10.25c.3 3.04.62 4.8 2.32 7.3 2.35 1.17 3.74 1.12 6.35 1.1l2.58-.01 2.7-.03 2.71-.01L743 729c4.83 8.06 4.83 8.06 4 14-1.42 4.46-3.2 7.88-7.25 10.38-11.03 5.26-23.17 4.64-34.8 1.67a28.77 28.77 0 0 1-15.98-14c-4.21-9.68-3.47-19.69-3.36-30.03l.02-6.07c.01-5.3.05-10.6.1-15.89.04-5.42.05-10.83.07-16.25.05-10.6.12-21.2.2-31.81a94.05 94.05 0 0 1 15-1.31Z"/><path fill="#353535" d="m647.5 659.75 2.22-.06c4.82-.04 8.19.51 12.28 3.31 3.91 4.72 4.56 8.54 4.45 14.48V680c0 2.73-.03 5.45-.06 8.18l-.02 5.7c-.01 4.97-.05 9.95-.1 14.93-.04 5.1-.05 10.18-.07 15.27-.05 9.97-.12 19.95-.2 29.92l-4.24.49-2.38.27c-3.53.36-7.03.5-10.57.55l-2.03.09c-5.08.06-7.93-1.14-11.78-4.4-2.67-3.76-2.27-7.93-2.23-12.35v-2.54l.03-8.31.01-5.77.05-15.17.04-15.49c.02-10.12.06-20.25.1-30.37 4.9-.84 9.53-1.22 14.5-1.25Z"/><path fill="#F8F8F8" d="M581 685v35c-10.44 5.22-10.44 5.22-18 4a21.41 21.41 0 0 1-10.08-9.26 37.57 37.57 0 0 1-.03-22.48c6.25-11.02 17.17-10.9 28.11-7.26Z"/><path fill="#363636" d="M657.43 617.9c4.36 2.57 7.49 5.41 9.57 10.1.81 6.24.67 11.69-3 17-3.76 4.35-6.94 6.62-12.68 7.34-5.99.08-9.7-.15-14.32-4.34-4.85-5.18-6.31-8.37-6.21-15.4.43-5.28 2.26-9.03 6.21-12.48 5.82-4.12 13.71-4.72 20.43-2.21Z"/><path fill="#F6F6F6" d="m262.01 715.9 2.3.01 2.38.03 2.41.01 5.9.05c.08 2.3.14 4.58.19 6.88l.1 3.86L275 730c-5.21 3.48-10.91 3.29-17 3a15.32 15.32 0 0 1-9-6c-.63-2.44-.63-2.44 0-5 4.12-4.03 7.24-6.14 13.01-6.1Z"/><path fill="#F0F0F0" d="M300 261c3.48 1.7 4.83 2.74 7 6 .13 2.69.13 2.69 0 5a84.76 84.76 0 0 1-7-2c-2-.12-4-.18-6-.19l-3.19-.04c-3.02.02-3.02.02-5.81 2.23h-3c.22-3.84.5-6.32 2.81-9.44 4.88-2.39 9.85-2.35 15.19-1.56Z"/></svg>