<?xml version="1.0" encoding="UTF-8"?>
<svg version="1.1" xmlns="http://www.w3.org/2000/svg" width="140" height="140">
<path d="M0 0 C46.2 0 92.4 0 140 0 C140 46.2 140 92.4 140 140 C93.8 140 47.6 140 0 140 C0 93.8 0 47.6 0 0 Z " fill="#FDFDFD" transform="translate(0,0)"/>
<path d="M0 0 C8.58 0 17.16 0 26 0 C26 5.28 26 10.56 26 16 C29.96 16 33.92 16 38 16 C38 15.34 38 14.68 38 14 C38.66 14 39.32 14 40 14 C40 14.66 40 15.32 40 16 C44.29 16 48.58 16 53 16 C53 15.34 53 14.68 53 14 C52.34 14 51.68 14 51 14 C51 13.34 51 12.68 51 12 C48.03 12 45.06 12 42 12 C42 11.34 42 10.68 42 10 C45.3 10 48.6 10 52 10 C52 10.66 52 11.32 52 12 C52.66 12 53.32 12 54 12 C54.495 13.98 54.495 13.98 55 16 C58.96 16 62.92 16 67 16 C67 10.72 67 5.44 67 0 C75.58 0 84.16 0 93 0 C93 11.22 93 22.44 93 34 C89.04 34 85.08 34 81 34 C81 35.98 81 37.96 81 40 C82.1446875 40.185625 82.1446875 40.185625 83.3125 40.375 C86 41 86 41 89 43 C89.40843923 45.71203652 89.13336867 48.2437142 89 51 C88.34 51 87.68 51 87 51 C87 51.99 87 52.98 87 54 C85.02 54.33 83.04 54.66 81 55 C81 56.32 81 57.64 81 59 C84.96 59 88.92 59 93 59 C93 70.22 93 81.44 93 93 C84.42 93 75.84 93 67 93 C67 89.04 67 85.08 67 81 C54.79 81 42.58 81 30 81 C30 81.66 30 82.32 30 83 C29.34 83 28.68 83 28 83 C28 84.32 28 85.64 28 87 C27.34 87 26.68 87 26 87 C26 87.66 26 88.32 26 89 C25.34 89 24.68 89 24 89 C24 89.66 24 90.32 24 91 C22.68 91 21.36 91 20 91 C20 91.66 20 92.32 20 93 C16.7 93 13.4 93 10 93 C10 92.34 10 91.68 10 91 C8.68 91 7.36 91 6 91 C6 90.34 6 89.68 6 89 C5.34 89 4.68 89 4 89 C4 88.34 4 87.68 4 87 C3.34 87 2.68 87 2 87 C2 85.02 2 83.04 2 81 C2.66 81 3.32 81 4 81 C4 80.34 4 79.68 4 79 C4.66 79 5.32 79 6 79 C6 78.34 6 77.68 6 77 C7.32 77 8.64 77 10 77 C10 76.34 10 75.68 10 75 C15.28 75 20.56 75 26 75 C26 73.68 26 72.36 26 71 C26.66 71 27.32 71 28 71 C28 69.02 28 67.04 28 65 C28.66 65 29.32 65 30 65 C30.66 61.7 31.32 58.4 32 55 C27.38 55 22.76 55 18 55 C18 54.01 18 53.02 18 52 C18.66 52 19.32 52 20 52 C20 51.01 20 50.02 20 49 C24.95 49 29.9 49 35 49 C35 47.68 35 46.36 35 45 C35.66 45 36.32 45 37 45 C37 44.01 37 43.02 37 42 C37.99 42 38.98 42 40 42 C40.66 40.68 41.32 39.36 42 38 C50.57142857 37.71428571 50.57142857 37.71428571 54 40 C54 41.32 54 42.64 54 44 C54.99 44.495 54.99 44.495 56 45 C54.79227053 51.40096618 54.79227053 51.40096618 51.4375 53.9375 C47.06089165 55.29026985 43.5695887 55.20770858 39 55 C38.505 59.95 38.505 59.95 38 65 C37.34 65 36.68 65 36 65 C36 66.32 36 67.64 36 69 C35.34 69 34.68 69 34 69 C34 70.98 34 72.96 34 75 C44.89 75 55.78 75 67 75 C67 69.72 67 64.44 67 59 C70.96 59 74.92 59 79 59 C79 57.35 79 55.7 79 54 C77.02 53.505 77.02 53.505 75 53 C75 52.34 75 51.68 75 51 C74.34 51 73.68 51 73 51 C73 50.34 73 49.68 73 49 C72.34 49 71.68 49 71 49 C71 47.35 71 45.7 71 44 C71.66 44 72.32 44 73 44 C73 43.34 73 42.68 73 42 C73.66 42 74.32 42 75 42 C75 41.01 75 40.02 75 39 C76.32 39 77.64 39 79 39 C79 37.35 79 35.7 79 34 C75.04 34 71.08 34 67 34 C67 28.72 67 23.44 67 18 C59.18906656 18.2823229 56.46909861 18.38697774 51 24 C47.9559772 24.43560122 45.05318431 24.29933179 42 24 C42 23.34 42 22.68 42 22 C44.97 22 47.94 22 51 22 C51.495 20.515 51.495 20.515 52 19 C48.04 18.67 44.08 18.34 40 18 C40 18.66 40 19.32 40 20 C39.34 20 38.68 20 38 20 C38 19.34 38 18.68 38 18 C34.04 18 30.08 18 26 18 C26 23.28 26 28.56 26 34 C17.42 34 8.84 34 0 34 C0 22.78 0 11.56 0 0 Z " fill="#0E0F0B" transform="translate(23,22)"/>
<path d="M0 0 C8.57142857 -0.28571429 8.57142857 -0.28571429 12 2 C12 3.32 12 4.64 12 6 C12.66 6.33 13.32 6.66 14 7 C12.79227053 13.40096618 12.79227053 13.40096618 9.4375 15.9375 C5.06089165 17.29026985 1.5695887 17.20770858 -3 17 C-3.33 20.3 -3.66 23.6 -4 27 C-4.66 27 -5.32 27 -6 27 C-6 28.32 -6 29.64 -6 31 C-6.66 31 -7.32 31 -8 31 C-8 32.98 -8 34.96 -8 37 C3.22 37 14.44 37 26 37 C26 32.05 26 27.1 26 22 C29.63 22 33.26 22 37 22 C37 22.33 37 22.66 37 23 C33.7 23 30.4 23 27 23 C27 24.98 27 26.96 27 29 C34.26 29 41.52 29 49 29 C49 27.02 49 25.04 49 23 C45.37 23 41.74 23 38 23 C38 22.67 38 22.34 38 22 C42.29 22 46.58 22 51 22 C51 32.89 51 43.78 51 55 C42.42 55 33.84 55 25 55 C25 51.04 25 47.08 25 43 C12.79 43 0.58 43 -12 43 C-12 43.66 -12 44.32 -12 45 C-12.66 45 -13.32 45 -14 45 C-14 46.32 -14 47.64 -14 49 C-14.66 49 -15.32 49 -16 49 C-16 49.66 -16 50.32 -16 51 C-16.66 51 -17.32 51 -18 51 C-18 51.66 -18 52.32 -18 53 C-19.32 53 -20.64 53 -22 53 C-22 53.66 -22 54.32 -22 55 C-25.3 55 -28.6 55 -32 55 C-32 54.34 -32 53.68 -32 53 C-33.32 53 -34.64 53 -36 53 C-36 52.34 -36 51.68 -36 51 C-36.66 51 -37.32 51 -38 51 C-38 50.34 -38 49.68 -38 49 C-38.66 49 -39.32 49 -40 49 C-40 47.02 -40 45.04 -40 43 C-39.34 43 -38.68 43 -38 43 C-38 42.34 -38 41.68 -38 41 C-37.34 41 -36.68 41 -36 41 C-36 40.34 -36 39.68 -36 39 C-34.68 39 -33.36 39 -32 39 C-32 38.34 -32 37.68 -32 37 C-26.72 37 -21.44 37 -16 37 C-16 35.68 -16 34.36 -16 33 C-15.34 33 -14.68 33 -14 33 C-14 31.02 -14 29.04 -14 27 C-13.34 27 -12.68 27 -12 27 C-11.34 23.7 -10.68 20.4 -10 17 C-14.62 17 -19.24 17 -24 17 C-24 16.01 -24 15.02 -24 14 C-23.34 14 -22.68 14 -22 14 C-22 13.01 -22 12.02 -22 11 C-17.05 11 -12.1 11 -7 11 C-7 9.68 -7 8.36 -7 7 C-6.34 7 -5.68 7 -5 7 C-5 6.01 -5 5.02 -5 4 C-4.01 4 -3.02 4 -2 4 C-1.34 2.68 -0.68 1.36 0 0 Z " fill="#0D0EF2" transform="translate(65,60)"/>
<path d="M0 0 C7.26 0 14.52 0 22 0 C22 7.26 22 14.52 22 22 C14.74 22 7.48 22 0 22 C0 14.74 0 7.48 0 0 Z " fill="#FAF900" transform="translate(92,91)"/>
<path d="M0 0 C7.26 0 14.52 0 22 0 C22 7.26 22 14.52 22 22 C14.74 22 7.48 22 0 22 C0 14.74 0 7.48 0 0 Z " fill="#F8F800" transform="translate(92,32)"/>
<path d="M0 0 C7.26 0 14.52 0 22 0 C22 7.26 22 14.52 22 22 C14.74 22 7.48 22 0 22 C0 14.74 0 7.48 0 0 Z " fill="#F8F800" transform="translate(25,32)"/>
<path d="M0 0 C0.7734375 0.2165625 0.7734375 0.2165625 1.5625 0.4375 C4.16907296 1.08369356 4.16907296 1.08369356 7.5625 1.4375 C11 2 11 2 14 4 C14.40843923 6.71203652 14.13336867 9.2437142 14 12 C13.34 12 12.68 12 12 12 C12 12.99 12 13.98 12 15 C10.02 15.33 8.04 15.66 6 16 C6 17.32 6 18.64 6 20 C9.96 20 13.92 20 18 20 C17.34 20.66 16.68 21.32 16 22 C16 23.98 16 25.96 16 28 C8.74 28 1.48 28 -6 28 C-6 26.02 -6 24.04 -6 22 C-6.33 21.67 -6.66 21.34 -7 21 C-7 25.95 -7 30.9 -7 36 C-7.33 36 -7.66 36 -8 36 C-8 30.72 -8 25.44 -8 20 C-4.04 20 -0.08 20 4 20 C4 18.35 4 16.7 4 15 C2.68 14.67 1.36 14.34 0 14 C0 13.34 0 12.68 0 12 C-0.66 12 -1.32 12 -2 12 C-2 11.34 -2 10.68 -2 10 C-2.66 10 -3.32 10 -4 10 C-4 8.35 -4 6.7 -4 5 C-3.34 5 -2.68 5 -2 5 C-2 4.34 -2 3.68 -2 3 C-1.34 3 -0.68 3 0 3 C0 2.01 0 1.02 0 0 Z " fill="#353732" transform="translate(98,61)"/>
<path d="M0 0 C8.58 0 17.16 0 26 0 C25.67 4.95 25.34 9.9 25 15 C24.67 15 24.34 15 24 15 C24 13.35 24 11.7 24 10 C16.74 10 9.48 10 2 10 C2 17.26 2 24.52 2 32 C9.26 32 16.52 32 24 32 C24 27.38 24 22.76 24 18 C24.33 18 24.66 18 25 18 C25 22.95 25 27.9 25 33 C12.625 33.495 12.625 33.495 0 34 C0 22.78 0 11.56 0 0 Z " fill="#020201" transform="translate(23,22)"/>
<path d="M0 0 C3.63 0 7.26 0 11 0 C11 0.33 11 0.66 11 1 C7.7 1 4.4 1 1 1 C1 2.98 1 4.96 1 7 C8.26 7 15.52 7 23 7 C23 5.02 23 3.04 23 1 C19.37 1 15.74 1 12 1 C12 0.67 12 0.34 12 0 C16.29 0 20.58 0 25 0 C25 10.89 25 21.78 25 33 C16.42 33 7.84 33 -1 33 C-1.08586474 21.92344895 -0.91172761 11.03841638 0 0 Z M1 9 C1 16.26 1 23.52 1 31 C8.26 31 15.52 31 23 31 C23 23.74 23 16.48 23 9 C15.74 9 8.48 9 1 9 Z " fill="#090A05" transform="translate(91,82)"/>
<path d="M0 0 C0.33 0 0.66 0 1 0 C1 4.29 1 8.58 1 13 C4.96 13 8.92 13 13 13 C13 12.34 13 11.68 13 11 C13.66 11 14.32 11 15 11 C15 11.66 15 12.32 15 13 C19.29 13 23.58 13 28 13 C28 12.34 28 11.68 28 11 C27.34 11 26.68 11 26 11 C26 10.34 26 9.68 26 9 C23.03 9 20.06 9 17 9 C17 8.34 17 7.68 17 7 C20.3 7 23.6 7 27 7 C27 7.66 27 8.32 27 9 C27.66 9 28.32 9 29 9 C29.495 10.98 29.495 10.98 30 13 C33.96 13 37.92 13 42 13 C42 13.66 42 14.32 42 15 C40.89591797 15.02126953 40.89591797 15.02126953 39.76953125 15.04296875 C33.03765919 15.37200345 30.75516096 16.11970322 26 21 C22.9559772 21.43560122 20.05318431 21.29933179 17 21 C17 20.34 17 19.68 17 19 C19.97 19 22.94 19 26 19 C26.495 17.515 26.495 17.515 27 16 C23.04 15.67 19.08 15.34 15 15 C15 15.66 15 16.32 15 17 C14.34 17 13.68 17 13 17 C13 16.34 13 15.68 13 15 C9.04 15 5.08 15 1 15 C1 20.28 1 25.56 1 31 C-6.59 31 -14.18 31 -22 31 C-22 30.67 -22 30.34 -22 30 C-14.74 30 -7.48 30 0 30 C-0.185625 27.2775 -0.37125 24.555 -0.5625 21.75 C-1.01605005 14.40649109 -0.93240733 7.31581134 0 0 Z " fill="#212A28" transform="translate(48,25)"/>
<path d="M0 0 C7.26 0 14.52 0 22 0 C22 1.98 22 3.96 22 6 C14.74 6 7.48 6 0 6 C0 4.02 0 2.04 0 0 Z " fill="#EDEE00" transform="translate(92,83)"/>
<path d="M0 0 C7.26 0 14.52 0 22 0 C22 1.98 22 3.96 22 6 C14.74 6 7.48 6 0 6 C0 4.02 0 2.04 0 0 Z " fill="#F9F900" transform="translate(92,24)"/>
<path d="M0 0 C7.26 0 14.52 0 22 0 C22 1.98 22 3.96 22 6 C14.74 6 7.48 6 0 6 C0 4.02 0 2.04 0 0 Z " fill="#F9F900" transform="translate(25,24)"/>
<path d="M0 0 C8.25 0 16.5 0 25 0 C25 10.89 25 21.78 25 33 C23.68 32.67 22.36 32.34 21 32 C21.66 32 22.32 32 23 32 C22.96447021 31.30438965 22.92894043 30.6087793 22.89233398 29.89208984 C22.73407387 26.7200181 22.58569903 23.54755707 22.4375 20.375 C22.38142578 19.28058594 22.32535156 18.18617187 22.26757812 17.05859375 C22.21923828 15.99511719 22.17089844 14.93164062 22.12109375 13.8359375 C22.0739624 12.86188965 22.02683105 11.8878418 21.97827148 10.88427734 C22 8 22 8 23 2 C15.74 2 8.48 2 1 2 C1 3.98 1 5.96 1 8 C0.67 8 0.34 8 0 8 C0 5.36 0 2.72 0 0 Z " fill="#000000" transform="translate(91,22)"/>
<path d="M0 0 C0.66 0 1.32 0 2 0 C2 11.22 2 22.44 2 34 C-6.58 34 -15.16 34 -24 34 C-24 33.34 -24 32.68 -24 32 C-16.08 32 -8.16 32 0 32 C0 21.44 0 10.88 0 0 Z " fill="#C3C2AC" transform="translate(116,83)"/>
<path d="M0 0 C0.66 0 1.32 0 2 0 C2 11.22 2 22.44 2 34 C-2.62 34 -7.24 34 -12 34 C-12 33.34 -12 32.68 -12 32 C-8.04 32 -4.08 32 0 32 C0 21.44 0 10.88 0 0 Z " fill="#C9CAA3" transform="translate(116,24)"/>
<path d="M0 0 C3.3 0 6.6 0 10 0 C10 0.66 10 1.32 10 2 C10.66 2 11.32 2 12 2 C12.33 3.32 12.66 4.64 13 6 C16.96 6 20.92 6 25 6 C25 6.66 25 7.32 25 8 C23.89591797 8.02126953 23.89591797 8.02126953 22.76953125 8.04296875 C16.03765919 8.37200345 13.75516096 9.11970322 9 14 C5.9559772 14.43560122 3.05318431 14.29933179 0 14 C0 13.34 0 12.68 0 12 C2.97 12 5.94 12 9 12 C9.66 9.36 10.32 6.72 11 4 C10.34 4 9.68 4 9 4 C9 3.34 9 2.68 9 2 C6.03 2 3.06 2 0 2 C0 1.34 0 0.68 0 0 Z " fill="#0F1C1D" transform="translate(65,32)"/>
<path d="M0 0 C0.66 0 1.32 0 2 0 C2.02684312 2.81256281 2.04676188 5.62487241 2.0625 8.4375 C2.07087891 9.23994141 2.07925781 10.04238281 2.08789062 10.86914062 C2.0965143 12.91295221 2.0522815 14.95683902 2 17 C1 18 1 18 -1.40844727 18.11352539 C-2.45057373 18.10828857 -3.4927002 18.10305176 -4.56640625 18.09765625 C-5.69111328 18.09443359 -6.81582031 18.09121094 -7.97460938 18.08789062 C-9.15861328 18.07951172 -10.34261719 18.07113281 -11.5625 18.0625 C-12.75037109 18.05798828 -13.93824219 18.05347656 -15.16210938 18.04882812 C-18.10812226 18.03699675 -21.05403681 18.02051287 -24 18 C-24 17.34 -24 16.68 -24 16 C-16.08 16 -8.16 16 0 16 C0 10.72 0 5.44 0 0 Z " fill="#D1D3C0" transform="translate(49,40)"/>
<path d="M0 0 C0.7734375 0.2165625 0.7734375 0.2165625 1.5625 0.4375 C4.167105 1.09060205 4.167105 1.09060205 7.5625 1.375 C10.95237215 1.99134039 12.00777405 2.30463548 14 5 C13.34 5 12.68 5 12 5 C12 5.66 12 6.32 12 7 C7.38 7 2.76 7 -2 7 C-2 5.68 -2 4.36 -2 3 C-1.34 3 -0.68 3 0 3 C0 2.01 0 1.02 0 0 Z " fill="#1A7C84" transform="translate(98,61)"/>
<path d="M0 0 C0.33 0 0.66 0 1 0 C1 4.95 1 9.9 1 15 C2.60875 14.835 4.2175 14.67 5.875 14.5 C20.41155531 13.20577766 20.41155531 13.20577766 26 16 C22.04 16 18.08 16 14 16 C14 17.98 14 19.96 14 22 C15.32 22.33 16.64 22.66 18 23 C15.03 23 12.06 23 9 23 C9.99 22.67 10.98 22.34 12 22 C12 20.02 12 18.04 12 16 C8.04 16 4.08 16 0 16 C0 10.72 0 5.44 0 0 Z " fill="#25251F" transform="translate(90,40)"/>
<path d="M0 0 C4.62 0 9.24 0 14 0 C13.34 1.32 12.68 2.64 12 4 C8.04 4 4.08 4 0 4 C0 2.68 0 1.36 0 0 Z " fill="#01CBCA" transform="translate(96,69)"/>
<path d="M0 0 C3.3 0 6.6 0 10 0 C10 0.66 10 1.32 10 2 C9.34 2 8.68 2 8 2 C8 2.66 8 3.32 8 4 C7.34 4 6.68 4 6 4 C6 4.66 6 5.32 6 6 C4.02 6 2.04 6 0 6 C0 5.34 0 4.68 0 4 C-0.66 4 -1.32 4 -2 4 C-2 3.34 -2 2.68 -2 2 C-1.34 2 -0.68 2 0 2 C0 1.34 0 0.68 0 0 Z " fill="#F0F2FC" transform="translate(35,103)"/>
<path d="M0 0 C3.63 0 7.26 0 11 0 C11 0.66 11 1.32 11 2 C11.66 2 12.32 2 13 2 C13 2.66 13 3.32 13 4 C8.71 4 4.42 4 0 4 C0 2.68 0 1.36 0 0 Z " fill="#00E5E5" transform="translate(63,34)"/>
<path d="M0 0 C4.29 0 8.58 0 13 0 C12.34 1.32 11.68 2.64 11 4 C7.37 4 3.74 4 0 4 C0 2.68 0 1.36 0 0 Z " fill="#02E0DF" transform="translate(63,40)"/>
<path d="M0 0 C0.66 0 1.32 0 2 0 C2 0.66 2 1.32 2 2 C6.62 2 11.24 2 16 2 C16 1.34 16 0.68 16 0 C16.66 0 17.32 0 18 0 C18 1.65 18 3.3 18 5 C17.34 5 16.68 5 16 5 C16 4.34 16 3.68 16 3 C11.38 3 6.76 3 2 3 C2 3.66 2 4.32 2 5 C1.34 5 0.68 5 0 5 C0 3.35 0 1.7 0 0 Z " fill="#0A0C09" transform="translate(94,66)"/>
<path d="M0 0 C0.33 1.32 0.66 2.64 1 4 C-3.62 4 -8.24 4 -13 4 C-13 3.34 -13 2.68 -13 2 C-12.14535156 1.93941406 -11.29070312 1.87882812 -10.41015625 1.81640625 C-8.75306641 1.69072266 -8.75306641 1.69072266 -7.0625 1.5625 C-5.96035156 1.48128906 -4.85820313 1.40007813 -3.72265625 1.31640625 C-1.08890097 1.29581916 -1.08890097 1.29581916 0 0 Z " fill="#C2C9C5" transform="translate(117,54)"/>
<path d="M0 0 C0.33 0 0.66 0 1 0 C1 4.29 1 8.58 1 13 C4.63 13 8.26 13 12 13 C12 13.33 12 13.66 12 14 C5.565 14.495 5.565 14.495 -1 15 C-0.67 10.05 -0.34 5.1 0 0 Z " fill="#15120B" transform="translate(48,25)"/>
<path d="M0 0 C0.99 0 1.98 0 3 0 C3 0.66 3 1.32 3 2 C2.34 2 1.68 2 1 2 C1 2.99 1 3.98 1 5 C-0.98 5.33 -2.96 5.66 -5 6 C-4.34 5.34 -3.68 4.68 -3 4 C-5.64 4 -8.28 4 -11 4 C-11 3.34 -11 2.68 -11 2 C-10.28972656 1.93941406 -9.57945313 1.87882812 -8.84765625 1.81640625 C-7.46900391 1.69072266 -7.46900391 1.69072266 -6.0625 1.5625 C-5.14597656 1.48128906 -4.22945313 1.40007812 -3.28515625 1.31640625 C-1.03840268 1.23955024 -1.03840268 1.23955024 0 0 Z " fill="#426464" transform="translate(109,71)"/>
<path d="M0 0 C0.99 0 1.98 0 3 0 C3.125 2.375 3.125 2.375 3 5 C2.34 5.66 1.68 6.32 1 7 C0.01 7 -0.98 7 -2 7 C-2.125 4.625 -2.125 4.625 -2 2 C-1.34 1.34 -0.68 0.68 0 0 Z " fill="#9E9FE4" transform="translate(68,65)"/>
<path d="M0 0 C1.9453125 -0.29296875 1.9453125 -0.29296875 4.125 -0.1875 C5.40375 -0.125625 6.6825 -0.06375 8 0 C8 0.66 8 1.32 8 2 C8.66 2.33 9.32 2.66 10 3 C6.04 3 2.08 3 -2 3 C-1.34 2.01 -0.68 1.02 0 0 Z " fill="#00FCF9" transform="translate(100,64)"/>
<path d="M0 0 C0.33 0.99 0.66 1.98 1 3 C-0.70828921 5.10633718 -1.52148416 5.93801608 -4.26171875 6.29296875 C-5.06222656 6.25816406 -5.86273438 6.22335938 -6.6875 6.1875 C-7.49574219 6.16042969 -8.30398437 6.13335937 -9.13671875 6.10546875 C-9.75160156 6.07066406 -10.36648437 6.03585938 -11 6 C-11 5.34 -11 4.68 -11 4 C-8.03 4 -5.06 4 -2 4 C-1.34 2.68 -0.68 1.36 0 0 Z " fill="#0F1F22" transform="translate(76,40)"/>
<path d="M0 0 C0.99 0.33 1.98 0.66 3 1 C-0.465 3.97 -0.465 3.97 -4 7 C-4 6.01 -4 5.02 -4 4 C-3.34 4 -2.68 4 -2 4 C-1.34 2.68 -0.68 1.36 0 0 Z " fill="#2702D8" transform="translate(65,60)"/>
</svg>
