<?xml version="1.0" encoding="UTF-8"?>
<svg version="1.1" xmlns="http://www.w3.org/2000/svg" width="512" height="512">
<path d="M0 0 C168.96 0 337.92 0 512 0 C512 168.96 512 337.92 512 512 C343.04 512 174.08 512 0 512 C0 343.04 0 174.08 0 0 Z " fill="#C3E355" transform="translate(0,0)"/>
<path d="M0 0 C1.15450653 -0.01409912 2.30901306 -0.02819824 3.49850464 -0.04272461 C5.38570724 -0.02754288 5.38570724 -0.02754288 7.31103516 -0.01205444 C8.65700461 -0.0188346 10.00296479 -0.02773998 11.34890747 -0.03860474 C15.00302882 -0.06139326 18.65644374 -0.05255499 22.31057739 -0.03670931 C26.15514969 -0.02400609 29.99966347 -0.03580649 33.84423828 -0.04364014 C40.31732946 -0.05274143 46.79013572 -0.04075474 53.26318359 -0.01693726 C60.69360098 0.01009137 68.12332837 0.00159651 75.5537281 -0.02606928 C81.96520342 -0.04896751 88.37647408 -0.05185528 94.78797722 -0.03887594 C98.60215352 -0.03116995 102.41600925 -0.02978605 106.23016357 -0.04655838 C139.14154782 -0.17131983 167.60702694 5.68835843 193.22509766 27.63491821 C194.03591797 28.30007446 194.84673828 28.96523071 195.68212891 29.65054321 C216.86815914 47.66700987 230.50167763 74.91738978 233.06396484 102.47183228 C235.54672004 135.80093994 226.06413841 165.06306443 204.70166016 190.65835571 C187.3250953 210.7872599 161.81410935 225.40342885 135.16723633 228.35562134 C130.52813428 228.68429742 125.93205165 228.70271933 121.28369141 228.67398071 C120.40934448 228.67116089 119.53499756 228.66834106 118.63415527 228.66543579 C116.49779098 228.65813697 114.36144065 228.64692989 112.22509766 228.63491821 C112.2339801 229.87662277 112.24286255 231.11832733 112.25201416 232.3976593 C112.33307528 244.09538622 112.39305133 255.7930562 112.43234634 267.49100018 C112.45322743 273.50515632 112.48155515 279.51908585 112.52685547 285.53311157 C112.57029378 291.3362075 112.59423084 297.13908536 112.60460663 302.94233131 C112.61200155 305.15714768 112.62644197 307.37195202 112.64801788 309.58667564 C112.67702443 312.68724807 112.68105472 315.78691764 112.67919922 318.88760376 C112.69358032 319.80470123 112.70796143 320.72179871 112.72277832 321.66668701 C112.69560323 325.85904134 112.5890982 328.05226931 110.32171631 331.68162537 C105.87764641 335.82189662 100.69667202 335.014577 94.91650391 334.91226196 C63.34801834 333.57894286 36.7941167 316.59491415 15.70947266 294.25405884 C-2.74823274 274.12058808 -10.91285479 245.75729657 -10.92880249 219.00007629 C-10.93318474 218.0844277 -10.937567 217.1687791 -10.94208205 216.22538358 C-10.95533564 213.18635573 -10.96161799 210.14735677 -10.96777344 207.10830688 C-10.97568423 204.91792677 -10.98395377 202.72754793 -10.99255371 200.53717041 C-11.01863295 193.37575502 -11.03405446 186.21433415 -11.04833984 179.05288696 C-11.05370293 176.58334157 -11.05908045 174.1137962 -11.0644722 171.64425087 C-11.08606881 161.37813796 -11.10480917 151.11202655 -11.11609459 140.84589672 C-11.13162977 126.80939014 -11.16031959 112.77313182 -11.21480183 98.73672112 C-11.25720353 87.72214666 -11.28037866 76.70766124 -11.28601515 65.69300634 C-11.28967294 59.5140867 -11.30174269 53.33544823 -11.33411789 47.15660667 C-11.3640995 41.35262199 -11.3705457 35.54909022 -11.35873413 29.74504471 C-11.35851265 27.61370598 -11.36687856 25.48234676 -11.38438797 23.35107994 C-11.40696698 20.44511657 -11.39883735 17.540812 -11.38290405 14.63484192 C-11.39678614 13.78854585 -11.41066823 12.94224979 -11.42497098 12.07030839 C-11.36834852 7.88955523 -11.11025394 6.10054665 -8.59783363 2.61210537 C-5.39016069 0.36544433 -3.87504305 0.00730113 0 0 Z " fill="#3C402B" transform="translate(160.77490234375,108.36508178710938)"/>
<path d="M0 0 C27.74282821 0 53.40113297 6.35443184 73.98828125 25.8828125 C93.37055857 46.28124805 104.58732477 71.50262755 104.42358398 99.77807617 C103.75170528 122.25526583 94.56341747 144.06645773 80 161 C79.23042969 161.97195313 78.46085937 162.94390625 77.66796875 163.9453125 C74.92710995 167.23173768 71.81761468 169.83086909 68.4375 172.4375 C67.82253662 172.91340576 67.20757324 173.38931152 66.57397461 173.87963867 C45.64827136 189.79439249 26.30230186 194 0 194 C0 129.98 0 65.96 0 0 Z " fill="#C3E355" transform="translate(273,126)"/>
<path d="M0 0 C27.39 0 54.78 0 83 0 C83 54.78 83 109.56 83 166 C80.41242633 162.54990177 78.60776435 159.46696025 76.69151306 155.63699341 C76.37184383 155.00077494 76.05217461 154.36455646 75.72281843 153.70905864 C74.65507052 151.58152559 73.5930506 149.45118582 72.53100586 147.32080078 C71.76567688 145.79285346 71.00000772 144.26507649 70.23402405 142.73745728 C68.15600237 138.59053226 66.08305063 134.44109217 64.01121211 130.29107523 C61.841784 125.94715509 59.66845237 121.60518841 57.4957428 117.26290894 C53.84706409 109.96919047 50.20176264 102.67379148 46.55834961 95.37744141 C42.3477587 86.9453801 38.13141687 78.51621362 33.91206831 70.08853161 C30.28867444 62.85082457 26.66840579 55.61156074 23.05073649 48.37099063 C20.8904946 44.04739086 18.72917924 39.72433692 16.56504631 35.40268326 C14.52995774 31.33829009 12.49880346 27.27195469 10.47064781 23.20409775 C9.72626465 21.71269029 8.98052408 20.22195944 8.23331833 18.73196411 C7.21232935 16.69546453 6.19631763 14.65655574 5.1815033 12.61697388 C4.61204452 11.47730227 4.04258574 10.33763065 3.45587063 9.16342354 C2 6 2 6 0 0 Z " fill="#C2E255" transform="translate(173,126)"/>
<path d="M0 0 C29.04 0 58.08 0 88 0 C88 29.37 88 58.74 88 89 C59.9616543 85.49520679 37.15117414 73.32539334 18.97265625 51.57421875 C7.62453577 36.26326254 1.57043377 18.84520529 0 0 Z " fill="#C1E155" transform="translate(168,337)"/>
</svg>
